<?xml version="1.0" standalone="no"?><!DOCTYPE svg PUBLIC "-//W3C//DTD SVG 1.1//EN" "http://www.w3.org/Graphics/SVG/1.1/DTD/svg11.dtd"><svg t="1494575459228" class="icon" style="" viewBox="0 0 1024 1024" version="1.1" xmlns="http://www.w3.org/2000/svg" p-id="9416" xmlns:xlink="http://www.w3.org/1999/xlink" width="32" height="32"><defs><style type="text/css"></style></defs><path d="M896 650.666667l-247.04-83.072s18.986667-28.416 39.253333-84.138667c20.266667-55.722667 23.168-86.314667 23.168-86.314667l-159.914666-1.322666v-54.613334l193.664-1.365333V301.226667h-193.706667V213.333333h-94.848v87.893334H275.882667v38.613333l180.693333-1.28v58.581333H311.637333v30.592h298.325334s-3.285333 24.832-14.72 55.722667c-11.434667 30.890667-23.210667 57.941333-23.210667 57.941333s-140.074667-49.024-213.888-49.024-163.584 29.653333-172.288 115.712c-8.661333 86.016 41.813333 132.608 112.938667 149.76 71.125333 17.237333 136.789333-0.170667 193.962666-28.16 57.173333-27.946667 113.28-91.477333 113.28-91.477333l287.914667 139.818667A142.08 142.08 0 0 1 753.792 896H270.208A142.08 142.08 0 0 1 128 753.792V270.208A142.08 142.08 0 0 1 270.208 128h483.584A142.08 142.08 0 0 1 896 270.208v380.458667z m-359.68-48s-88.789333 108.117333-193.408 108.117333c-104.661333 0-126.634667-51.370667-126.634667-88.32 0-36.906667 21.76-77.056 110.805334-82.858667 89.002667-5.802667 209.28 63.061333 209.28 63.061334z" fill="#02A9F1" p-id="9417"></path></svg>